# xmcd CD database file
#
# Track frame offsets:
#	150
#	11587
#	23522
#	56078
#	58391
#	71989
#	84490
#	96908
#	111631
#	117944
#	130563
#	143458
#	155709
#	168147
#	182208
#	190776
#	217092
#	229136
#	239813
#	251435
#	265106
#	276761
#	289270
#	299447
#	314394
#	328507
#
# Disc length: 4563 seconds
#
# Revision: 5
# Processed by: cddbd v1.5.2PL0 Copyright (c) Steve Scherf et al.
# Submitted via: CDex 1.51
#
DISCID=9011d11a
DTITLE=Chano Pozo - CD 3 The cu-bop days
DYEAR=1947
DGENRE=Jazz
TTITLE0=Taylor, Billy - Chano Pozo in New York
TTITLE1=Gillespie, Dizzy - Relaxin  At Camarillo
TTITLE2=Gillespie, Dizzy - Cubana-Be, Cubana-Bop
TTITLE3=Billy Taylor - reflects on the importance of Dizzy Gillespie
TTITLE4=Gillespie, Dizzy - Algo Bueno (Woody  N You)
TTITLE5=Gillespie, Dizzy - Cool Breeze
TTITLE6=Gillespie, Dizzy - Cubana Be
TTITLE7=Gillespie, Dizzy - Cubana Bop
TTITLE8=Cecil Payne, Billy Taylor And Dizzy Gillespie - Comments
TTITLE9=Gillespie, Dizzy - Good Bait
TTITLE10=Gillespie, Dizzy - Ool-Ya-Koo
TTITLE11=Gillespie, Dizzy - Minor Walk
TTITLE12=Mario Bauzá, Billy Taylor And Dizzy Gillespie - Comment
TTITLE13=Gillespie, Dizzy - Manteca
TTITLE14=Mario Bauzá, Billy Taylor And Cecil Payne - Recall
TTITLE15=Gillespie, Dizzy - Cubana-Be, Cubana-Bop (Afro-Cuban Suite)
TTITLE16=Milt Jacksony Quintet - Baggy s Blues
TTITLE17=Milt Jacksony Quintet - Baggy Eyes
TTITLE18=Moody, James and his Bopmen - Moody s All Frantic
TTITLE19=Moody, James and his Bopmen - Tropicana
TTITLE20=Moody, James and his Bopmen - Cu-Ba
TTITLE21=Moody, James and his Bopmen - Tin-Tin-Deo
TTITLE22=Billy Taylor and Machito - Relate the circumstances
TTITLE23=Prado, Perez - Memoria a Chano
TTITLE24=Valdes, Miguelito - Chano Pozo
TTITLE25=Moré, Benny - Rumberos De Ayer
EXTD=YEAR: 1947
EXTT0=
EXTT1=
EXTT2=
EXTT3=
EXTT4=
EXTT5=
EXTT6=
EXTT7=
EXTT8=
EXTT9=
EXTT10=
EXTT11=
EXTT12=
EXTT13=
EXTT14=
EXTT15=
EXTT16=
EXTT17=
EXTT18=
EXTT19=
EXTT20=
EXTT21=
EXTT22=
EXTT23=
EXTT24=
EXTT25=
PLAYORDER=
